<svg xmlns="http://www.w3.org/2000/svg" width="512" height="512" viewBox="0 0 512 512" version="1.1">
	<path d="M 151.354 26.049 C 149.624 27.157, 144.799 32.074, 140.630 36.975 C 132.355 46.704, 127.846 49.877, 117.950 52.934 C 110.732 55.163, 108.225 57.372, 100.697 68.141 C 94.699 76.722, 89.335 81.354, 78.382 87.414 C 73.497 90.116, 66.720 94.073, 63.322 96.208 L 57.145 100.088 63.822 109.794 C 72.777 122.809, 88.264 138.197, 98.228 143.978 C 107.655 149.447, 108.393 150.904, 107.819 162.913 C 107.216 175.512, 103.253 183.306, 90.529 196.917 C 80.102 208.070, 78.303 211.827, 79.505 219.929 C 81.191 231.291, 93.458 252.199, 105.512 264.253 C 112.065 270.806, 119.606 275.371, 125.984 276.647 C 127.643 276.979, 129 277.588, 129 278.001 C 129 278.413, 127.935 281.170, 126.634 284.126 C 125.333 287.082, 123.501 292.200, 122.563 295.500 C 121.625 298.800, 118.658 306.265, 115.970 312.089 C 103.266 339.611, 101.897 365.476, 111.642 393.858 C 115.147 404.068, 123.555 420.713, 130.290 430.775 C 136 439.307, 150.958 457.817, 152.235 457.933 C 152.640 457.970, 152.026 455.637, 150.872 452.750 C 149.717 449.863, 148.374 446.153, 147.886 444.507 C 146.733 440.610, 146.742 432, 147.900 432 C 149.487 432, 158.199 438.297, 169.500 447.612 C 181.235 457.286, 188.108 462.225, 188.831 461.503 C 189.075 461.258, 186.625 457.855, 183.387 453.941 C 169.313 436.924, 165.645 432.121, 161.989 425.919 C 156.612 416.798, 150.157 401.850, 147.989 393.500 L 146.171 386.500 146.086 392.145 C 146.002 397.683, 148.773 408.684, 151.672 414.318 C 153.069 417.033, 153.047 417.095, 151.072 416.038 C 147.611 414.186, 134.109 398.019, 130.230 391.083 C 124.447 380.742, 121.860 370.562, 121.315 356 C 121.058 349.125, 121.254 341.025, 121.751 338 L 122.655 332.500 123.865 337 C 129.738 358.843, 131.362 360.971, 182.538 413.883 C 200.798 432.762, 203.528 436.419, 210.065 450.750 C 212.386 455.838, 214.701 460, 215.210 460 C 215.719 460, 215.914 459.212, 215.645 458.250 C 215.375 457.287, 213.727 449.750, 211.983 441.500 C 207.174 418.764, 204.374 408.684, 201.020 402.039 C 197.372 394.813, 195.570 394.155, 197.493 400.750 C 198.254 403.363, 200 409.550, 201.372 414.500 L 203.867 423.500 200.735 419.500 C 199.013 417.300, 194.431 412.599, 190.552 409.054 C 174.637 394.507, 167.430 386.390, 163.737 378.854 C 159.904 371.032, 157.045 361.375, 156.930 355.856 C 156.891 354.010, 156.496 351.600, 156.053 350.500 C 154.899 347.641, 153.593 356.666, 154.271 362.813 L 154.787 367.500 149.951 362.124 C 138.902 349.841, 133.755 334.815, 133.638 314.500 C 133.557 300.575, 135.030 292.615, 139.280 284 C 141.202 280.103, 142.170 279.288, 146.500 277.915 L 151.500 276.329 152.162 288.415 C 152.910 302.085, 154.878 309.238, 161.078 320.824 C 168.836 335.322, 179.140 346.298, 196.890 358.970 C 208.578 367.315, 216.964 375.964, 219.614 382.406 C 220.651 384.929, 221.776 386.994, 222.114 386.996 C 222.452 386.998, 223.511 384.950, 224.468 382.445 C 226.852 376.202, 235.916 366.722, 244.030 361.982 C 252.127 357.254, 275.811 346.659, 281.750 345.109 C 284.087 344.499, 287.769 343.541, 289.932 342.980 C 292.951 342.197, 295.638 340.051, 301.511 333.730 C 308.872 325.809, 309.215 325.575, 310.659 327.500 C 313.607 331.430, 317.030 339.041, 318.107 344.062 C 320.129 353.491, 314.814 367.998, 305.241 379.178 C 302.735 382.105, 300.890 384.050, 301.140 383.500 C 301.391 382.950, 302.844 379.914, 304.370 376.753 C 307.996 369.242, 308.741 361.675, 306.311 357.060 C 303.376 351.484, 302.500 352.331, 302.495 360.751 C 302.490 367.377, 302.028 369.475, 299.307 375.230 C 292.786 389.019, 285.479 397.381, 265.279 414.174 C 257.458 420.676, 248.908 428.693, 246.279 431.988 C 241.666 437.770, 241.488 437.884, 241.153 435.240 C 240.704 431.689, 242.639 423.070, 245.171 417.346 C 249.296 408.022, 244.266 412.099, 239.070 422.292 C 234.450 431.355, 232.880 440.392, 233.212 456 C 233.448 467.053, 233.765 469.500, 234.964 469.500 C 235.860 469.500, 237.438 466.789, 239.037 462.500 C 242.812 452.375, 245.203 448.132, 251.793 439.862 C 260.289 429.201, 273.550 417.888, 279.200 416.481 C 282.732 415.601, 287 419.602, 287 423.795 C 287 428.455, 283.440 440.961, 280.014 448.336 C 278.268 452.096, 277.028 455.361, 277.258 455.592 C 277.489 455.822, 280.788 452.299, 284.589 447.761 C 288.390 443.224, 296.412 434.334, 302.415 428.006 C 319.207 410.305, 330.414 396.879, 338.166 385.176 C 342.056 379.304, 346.522 373.035, 348.092 371.246 C 351.223 367.676, 353.478 360.759, 354.525 351.517 C 355.045 346.922, 355.880 344.762, 358.122 342.208 C 361.649 338.191, 371.094 319.627, 374.001 310.998 C 376.550 303.429, 376.834 290.592, 374.591 284.250 C 373.765 281.913, 373.244 280, 373.433 280 C 373.622 280, 377.437 285.145, 381.910 291.434 C 396.112 311.400, 399.501 321.682, 398.740 342.500 C 398.029 361.963, 393.421 375.926, 379.217 401.648 C 369.826 418.655, 368.249 420.486, 372.883 409 C 380.160 390.966, 382.896 374.158, 381.041 358.895 C 379.859 349.180, 376.968 340.186, 374.229 337.707 C 372.599 336.232, 372.500 336.868, 372.500 348.821 C 372.500 363.709, 370.590 371.297, 363.431 384.842 C 355.187 400.441, 339.619 417.562, 306.500 447.450 C 298.800 454.400, 292.370 460.457, 292.210 460.911 C 292.051 461.365, 296.227 459.517, 301.490 456.803 C 312.841 450.950, 315.364 450.852, 315.810 456.245 C 316.051 459.150, 314.571 463.409, 309.207 475.245 C 301.192 492.933, 300.776 494, 301.910 494 C 303.482 494, 319.425 484.836, 330.500 477.567 C 362.831 456.345, 386.004 431.785, 401.797 402 C 417.209 372.933, 420.110 345.297, 410.602 318.096 C 405.946 304.775, 394.337 286.565, 386.624 280.485 C 384.747 279.005, 384.098 278.017, 385 278.010 C 387.542 277.990, 399.186 272.072, 404.328 268.186 C 414.917 260.184, 432.180 234.903, 435.546 222.467 C 438.160 212.812, 437.106 210.355, 424.653 197.069 C 418.562 190.571, 413.325 183.945, 411.797 180.803 C 406.610 170.140, 405.824 157.107, 409.959 150.308 C 410.983 148.625, 415.134 144.753, 419.185 141.705 C 428.890 134.401, 443.277 119.357, 449.507 110 C 452.253 105.875, 454.950 102.169, 455.500 101.764 C 456.967 100.683, 452.107 97.096, 438.782 89.424 C 423.375 80.553, 421.538 78.924, 413.630 67.121 C 407.503 57.975, 406.428 56.884, 401.211 54.510 C 386.434 47.785, 384.655 46.529, 376.395 36.987 C 363.618 22.228, 359.419 21.060, 345.736 28.458 C 333.926 34.844, 329.350 35.623, 318.735 33.057 C 310.701 31.115, 307.287 31, 257.530 31 C 207.332 31, 204.446 31.099, 196.667 33.092 C 192.064 34.271, 186.899 34.972, 184.831 34.698 C 182.813 34.431, 176.640 31.914, 171.113 29.106 C 160.039 23.480, 156.274 22.897, 151.354 26.049 M 150.966 39.576 C 143.616 47.074, 134.461 53.852, 125.629 58.336 C 121.615 60.374, 113.644 65.928, 107.915 70.679 C 102.187 75.430, 97.950 79.110, 98.500 78.858 C 99.050 78.605, 102.200 77.134, 105.500 75.588 C 117.740 69.855, 126.728 68.163, 118.035 73.229 L 112.569 76.414 122.035 78.079 C 133.129 80.032, 148.606 81.196, 147.363 79.985 C 146.024 78.678, 136.185 75.012, 133.713 74.898 C 132.228 74.829, 132.651 74.512, 135 73.933 C 138.815 72.993, 147.593 74.180, 151.254 76.130 C 153.322 77.233, 153.386 77.190, 152.067 75.591 C 150.051 73.148, 144.119 70.286, 139.453 69.506 C 133.203 68.460, 132.119 67.841, 135 66.962 C 139.443 65.607, 145.678 65.955, 151.959 67.910 C 156.468 69.313, 157.796 69.459, 156.967 68.460 C 154.541 65.537, 146.933 62.841, 139.530 62.281 C 131.691 61.688, 130.448 60.889, 134.250 58.884 C 135.488 58.231, 141.131 54.165, 146.791 49.849 C 152.451 45.532, 157.342 42, 157.659 42 C 157.976 42, 159.774 43.351, 161.655 45.002 C 165.936 48.761, 173.348 52.518, 178.235 53.406 C 182.865 54.248, 189.764 52.504, 192.750 49.736 C 196.085 46.646, 195.504 46.058, 190.750 47.713 C 182.313 50.649, 171.274 47.078, 162.014 38.416 C 159.417 35.987, 157.099 34, 156.862 34 C 156.625 34, 153.972 36.509, 150.966 39.576 M 354.500 37.517 C 352.300 39.410, 347.800 42.430, 344.500 44.229 C 338.886 47.290, 337.873 47.500, 328.751 47.500 C 323.389 47.500, 319.002 47.844, 319.001 48.265 C 319.001 48.685, 320.462 49.950, 322.250 51.076 C 324.997 52.806, 326.737 53.062, 333.500 52.734 C 342.384 52.302, 346.760 50.549, 353.954 44.539 C 357.982 41.173, 358.409 41.035, 360.384 42.457 C 361.548 43.294, 365.720 46.122, 369.655 48.740 C 373.590 51.358, 377.640 54.053, 378.655 54.728 C 380.164 55.733, 379.045 55.867, 372.500 55.462 L 364.500 54.967 369.793 56.474 C 372.704 57.303, 376.257 58.595, 377.690 59.346 C 380.164 60.642, 379.950 60.735, 373.397 61.205 C 366.592 61.694, 358.986 64.557, 357.376 67.236 C 356.765 68.253, 356.920 68.254, 358.171 67.241 C 361.019 64.936, 370.593 63.774, 376.552 65.011 C 382.837 66.316, 383.764 68, 378.196 68 C 374.198 68, 365.100 71.969, 362.832 74.703 C 361.715 76.049, 362.066 76.016, 365 74.493 C 367.093 73.407, 371.515 72.495, 376 72.224 C 384.184 71.729, 384.457 72.577, 377 75.333 C 374.525 76.247, 371.150 78.156, 369.500 79.574 C 367.358 81.415, 367.207 81.701, 368.973 80.576 C 370.757 79.439, 374.097 78.983, 380.973 78.939 C 386.213 78.905, 393.636 78.334, 397.469 77.671 L 404.438 76.465 400.421 75.139 C 395.452 73.499, 390.611 70.056, 393.227 70.022 C 395.546 69.992, 407.424 74.511, 411.902 77.126 C 418.493 80.976, 403.220 67.441, 393.500 60.820 C 383.503 54.009, 374.616 47.153, 365.542 39.250 C 362.227 36.362, 359.286 34.017, 359.007 34.038 C 358.728 34.058, 356.700 35.624, 354.500 37.517 M 256.261 37.529 C 252.552 40.127, 251.979 44.806, 253.152 62.904 C 253.837 73.486, 253.984 95.479, 253.556 123.596 C 253.187 147.850, 253.185 168.887, 253.551 170.346 C 254.181 172.856, 254.550 173.001, 260.358 173.010 C 269.791 173.025, 280.891 179.021, 284.536 186.069 C 287.575 191.947, 285.043 210.340, 280.091 218.353 C 275.491 225.796, 266.463 231.928, 257.741 233.534 C 253.319 234.348, 252.051 237.231, 254.160 241.676 C 255.785 245.101, 269.157 254.157, 276.946 257.107 C 284.526 259.978, 293.063 259.984, 299.488 257.123 C 305.134 254.609, 308.012 252.215, 312.136 246.600 C 316.030 241.298, 315.876 237.258, 311.480 229.398 C 309.478 225.817, 308.029 221.896, 308.119 220.302 C 308.207 218.761, 307.954 216.312, 307.558 214.859 C 306.722 211.794, 308.039 210.560, 311.107 211.534 C 312.888 212.099, 313.106 212.736, 312.586 215.848 C 311.594 221.790, 311.721 222.530, 315.045 230.102 C 317.981 236.793, 318.173 237.887, 317.551 244.423 C 317.181 248.315, 315.963 253.417, 314.845 255.760 C 312.644 260.372, 305.823 266.577, 301.312 268.071 C 298.706 268.934, 298.755 268.964, 301.986 268.479 C 303.903 268.191, 307.139 266.616, 309.177 264.978 C 311.215 263.340, 313.296 262, 313.802 262 C 314.307 262, 315.664 264.813, 316.817 268.250 C 317.970 271.688, 318.933 273.729, 318.957 272.787 C 318.981 271.845, 318.087 268.758, 316.972 265.928 L 314.943 260.782 317.352 254.786 L 319.762 248.790 324.050 252.645 C 326.409 254.765, 330.063 259.157, 332.170 262.405 C 334.276 265.653, 336 267.860, 336 267.310 C 336 265.161, 328.098 254.239, 324.012 250.742 L 319.701 247.052 320.273 238.276 C 320.700 231.727, 321.666 227.407, 324.079 221.250 L 327.313 213 333.656 213 C 337.145 213, 340 213.301, 340 213.668 C 340 216.125, 337.673 227, 337.147 226.999 C 336.791 226.999, 334.082 226.080, 331.126 224.957 C 328.171 223.833, 325.564 223.102, 325.334 223.332 C 325.104 223.563, 327.786 224.764, 331.293 226.002 L 337.670 228.253 338.763 236.422 C 339.364 240.915, 341.538 249.745, 343.595 256.045 C 350.883 278.370, 348.483 291.011, 331.266 321 C 328.266 326.225, 325.446 330.885, 324.999 331.356 C 324.553 331.827, 323.310 330.229, 322.238 327.805 C 319.140 320.802, 311.489 313.264, 300.500 306.387 C 297.810 304.704, 297.965 305.063, 302 309.852 C 310.986 320.519, 315.301 326.627, 318.352 333 C 320.999 338.528, 321.467 340.658, 321.482 347.245 C 321.492 351.505, 321.725 354.961, 322 354.925 C 323.610 354.712, 343.884 330.367, 345.803 326.341 C 347.805 322.141, 348.051 320.385, 347.656 313.089 L 347.201 304.678 350.263 309.589 C 355.990 318.774, 357.425 322.995, 357.464 330.765 C 357.495 337.100, 357.675 337.803, 358.864 336.265 C 364.533 328.930, 370.364 308.176, 370.316 295.500 C 370.270 283.432, 368.552 279.096, 361.168 272.414 C 357.838 269.400, 354.044 264.678, 352.263 261.331 C 349.138 255.457, 345.717 243.547, 344.625 234.739 L 344.035 229.977 347.837 231.917 C 349.928 232.983, 353.857 235.601, 356.569 237.733 C 361.437 241.559, 366.334 244.704, 362.940 241.824 C 355.958 235.899, 351.880 232.929, 348.142 231.045 L 343.783 228.849 344.479 222.174 C 344.862 218.503, 345.473 215.217, 345.837 214.870 C 346.202 214.524, 349.509 214.707, 353.186 215.276 C 357.795 215.990, 361.211 215.990, 364.186 215.276 C 368.436 214.256, 368.388 214.238, 361 214.109 C 356.875 214.037, 351.790 213.695, 349.701 213.350 C 346.056 212.748, 345.929 212.596, 346.576 209.611 C 346.946 207.900, 349.169 201.520, 351.516 195.433 C 358.318 177.789, 359.479 171.247, 359.402 151 C 359.304 125.356, 356.420 106.625, 350.907 95.818 C 349.775 93.599, 349.220 91.947, 349.674 92.147 C 361.065 97.173, 367.880 103.510, 372.636 113.500 C 378.098 124.974, 380.025 134.401, 380.608 152.500 C 381.241 172.144, 382.826 180.058, 389.216 195.491 C 399.969 221.462, 401.246 229.587, 397.104 245.667 C 394.944 254.051, 394.364 261, 395.824 261 C 398.097 261, 410.903 246.900, 413.578 241.452 C 416.150 236.213, 416.500 234.422, 416.500 226.500 C 416.500 218.676, 416.140 216.782, 413.745 212 C 412.020 208.556, 411.186 207.528, 411.514 209.251 C 411.803 210.764, 412.270 214.139, 412.553 216.751 L 413.067 221.500 410.602 216.276 C 409.245 213.402, 405.160 206.892, 401.523 201.808 C 388.541 183.660, 386.029 176.050, 386.012 154.815 C 385.998 137.062, 384.401 128.549, 378.985 117.355 C 372.745 104.457, 361.539 93.915, 350 90.087 C 346.881 89.052, 345.989 87.857, 341.801 79.102 C 336.707 68.452, 331.720 62.691, 320.310 54.270 C 315.812 50.951, 313.288 48.142, 311.077 43.994 L 308.035 38.285 294.552 37.770 C 278.855 37.172, 273.839 37.863, 270.392 41.102 C 268.081 43.272, 267.939 43.918, 268.538 49.509 C 268.990 53.731, 268.555 59.192, 267.102 67.533 C 265.045 79.342, 263.126 87.514, 262.568 86.844 C 262.410 86.655, 262.859 78.740, 263.566 69.254 C 264.958 50.552, 264.307 41.102, 261.406 37.897 C 259.333 35.605, 259.038 35.584, 256.261 37.529 M 202.890 43.723 C 200.857 47.154, 197.729 50.657, 195.076 52.473 C 185.521 59.012, 176.567 69.054, 171.411 79.012 C 166.505 88.490, 166.492 88.504, 159.287 92.171 C 155.321 94.189, 150.449 97.081, 148.463 98.596 C 141.571 103.852, 133.845 116.785, 130 129.500 C 129.335 131.700, 128.479 142.950, 128.099 154.500 C 127.277 179.448, 126.964 180.485, 114.346 200 C 109.901 206.875, 105.273 214.456, 104.062 216.847 C 102.851 219.238, 101.673 221.006, 101.444 220.777 C 101.214 220.548, 101.890 217.248, 102.944 213.444 C 103.999 209.641, 104.701 206.368, 104.505 206.171 C 103.794 205.460, 98.002 216.581, 97.377 219.857 C 96.253 225.756, 97.821 235.136, 101.026 241.675 C 104.883 249.546, 118.773 263.157, 120.252 260.514 C 121.368 258.519, 120.473 252.942, 117.371 242.574 C 113.230 228.730, 114.259 221.964, 124 199 C 131.983 180.180, 132.976 175.810, 133.966 155.119 C 135.569 121.635, 142.937 102.626, 157.093 95.453 C 159.755 94.104, 162.121 93, 162.351 93 C 162.580 93, 161.708 95.623, 160.413 98.829 C 155.919 109.956, 154.525 121.354, 154.583 146.500 C 154.644 172.654, 154.917 174.168, 163.864 197.954 C 166.648 205.354, 168.776 211.557, 168.595 211.739 C 167.535 212.799, 154.581 214.098, 149.500 213.654 C 145.694 213.322, 144.231 213.446, 145.500 213.995 C 148.056 215.100, 159.235 215.158, 164.731 214.094 C 168.916 213.284, 168.966 213.309, 169.427 216.388 C 171.011 226.980, 170.990 227.379, 168.722 229.935 C 167.500 231.312, 167.247 231.869, 168.161 231.171 C 169.075 230.474, 170.014 230.262, 170.249 230.701 C 170.981 232.069, 167.309 251.818, 164.972 259.087 C 163.488 263.704, 161.376 267.578, 158.624 270.733 L 154.500 275.461 158 273.320 C 165.649 268.642, 172.593 254.136, 175.148 237.500 C 175.739 233.650, 176.575 229.571, 177.005 228.436 C 177.436 227.301, 177.436 225.726, 177.005 224.936 C 176.575 224.146, 175.906 221.137, 175.518 218.250 L 174.812 213 179.290 213 L 183.768 213 186.314 219.868 C 190.197 230.343, 190.499 233.339, 188.489 241.411 C 185.541 253.250, 188.244 262.512, 195.402 265.101 C 198.549 266.239, 198.862 266.666, 198.221 268.940 C 196.737 274.206, 197.554 287.301, 199.659 292.011 C 204.187 302.138, 211.991 306.307, 221.335 303.591 C 226.776 302.009, 235 295.890, 235 293.422 C 235 291.472, 234.519 291.615, 231.430 294.478 C 224.162 301.213, 211.367 297.841, 206.216 287.832 C 204.212 283.937, 203.815 281.700, 203.818 274.332 L 203.822 265.500 199.662 263.433 C 197.374 262.297, 194.214 259.535, 192.641 257.296 C 188.665 251.639, 188.206 245.974, 190.982 236.833 C 193.176 229.609, 193.262 225.604, 191.420 216.296 C 190.854 213.433, 191.069 213.021, 193.440 212.426 C 196.785 211.586, 197.468 212.258, 196.020 214.963 C 195.184 216.524, 195.169 217.981, 195.960 220.380 C 196.792 222.898, 196.680 225.389, 195.480 231.081 C 193.596 240.015, 194.212 244.612, 197.990 249.827 C 203.906 257.995, 217.736 261.428, 228.230 257.334 C 234.297 254.968, 245.611 247.543, 247.315 244.811 C 249.084 241.975, 250.110 236.778, 249.184 235.351 C 248.808 234.771, 245.384 233.267, 241.577 232.009 C 229.465 228.007, 222.809 220.053, 218.976 205 C 215.423 191.048, 216.739 185.946, 225.660 179.098 C 230.937 175.047, 237.512 173, 245.246 173 L 251.174 173 250.725 127.750 C 250.368 91.785, 249.929 80.346, 248.588 72 C 247.575 65.702, 247.020 57.562, 247.199 51.661 C 247.624 37.688, 248.141 38, 224.529 38 L 206.281 38 202.890 43.723 M 201.052 91.072 C 203.493 94.501, 206.269 102.756, 205.434 104.107 C 205.137 104.588, 203.680 104.101, 202.197 103.025 C 198.744 100.520, 191.086 98.842, 186.819 99.654 C 180.791 100.801, 174.079 105.087, 169.808 110.517 C 168.181 112.585, 168.677 112.446, 173.680 109.434 C 180.838 105.124, 184.875 103.983, 192.500 104.116 L 198.500 104.221 193.273 105.498 C 186.205 107.224, 183.652 109.047, 174.077 119.203 L 165.871 127.906 167.864 130.703 C 168.960 132.241, 171.762 138.225, 174.091 144 C 178.642 155.286, 181.468 160.362, 184.920 163.450 C 187.068 165.372, 187.153 165.372, 190.629 163.500 C 192.889 162.283, 196.003 158.811, 199.289 153.843 C 202.110 149.576, 204.580 146.247, 204.777 146.444 C 204.974 146.641, 205.164 150.689, 205.199 155.440 C 205.234 160.192, 205.614 163.949, 206.042 163.790 C 208.026 163.053, 234 127.439, 234 125.455 C 234 123.782, 233.241 123.098, 230.853 122.621 C 228.986 122.247, 225.775 120.060, 222.961 117.246 C 218.346 112.630, 218.197 112.289, 217.496 104.803 C 217.015 99.667, 216.230 96.616, 215.137 95.632 C 213.555 94.207, 200.854 88, 199.520 88 C 199.159 88, 199.848 89.383, 201.052 91.072 M 304.500 91.641 C 296.100 95.892, 295 97.148, 295 102.495 C 295 110.764, 288.252 120.182, 280.500 122.732 C 274.545 124.691, 275.586 126.451, 302.244 159.500 L 306.278 164.500 305.692 157.193 C 304.867 146.898, 305.569 145.887, 309.494 151.715 C 314.247 158.773, 320.399 164, 323.952 164 C 328.047 164, 330.681 160.200, 337.415 144.572 C 340.480 137.461, 343.968 130.598, 345.168 129.322 C 346.367 128.045, 346.892 127, 346.335 127 C 345.777 127, 340.999 122.972, 335.716 118.049 C 325.723 108.736, 320.031 105.071, 315.290 104.898 L 312.500 104.796 315.702 103.767 C 319.670 102.492, 327.193 104.696, 334.288 109.211 C 336.921 110.886, 339.330 112.003, 339.641 111.692 C 339.952 111.381, 338.095 109.074, 335.514 106.565 C 327.377 98.657, 317.002 97.278, 309.578 103.117 C 308.102 104.278, 306.698 105.031, 306.458 104.791 C 305.495 103.828, 308.865 93.772, 310.864 91.645 C 313.055 89.312, 313.576 87.962, 312.250 88.049 C 311.837 88.076, 308.350 89.693, 304.500 91.641 M 315.558 97.907 C 315.249 98.405, 315.898 98.578, 316.999 98.290 C 319.334 97.679, 319.629 97, 317.559 97 C 316.766 97, 315.866 97.408, 315.558 97.907 M 338.783 115.500 C 340.096 118.040, 345 122.671, 345 121.370 C 345 120.832, 343.369 118.842, 341.375 116.946 C 339.186 114.866, 338.159 114.293, 338.783 115.500 M 169.578 119.180 C 167.610 121.479, 166 123.829, 166 124.403 C 166 124.976, 166.744 124.332, 167.653 122.973 C 168.563 121.613, 170.447 119.263, 171.840 117.750 C 173.234 116.237, 174.100 115, 173.765 115 C 173.430 115, 171.546 116.881, 169.578 119.180 M 195.625 116.518 C 194.731 117.412, 194 119.263, 194 120.632 C 194 122.896, 194.338 123.093, 197.750 122.810 C 201.310 122.516, 201.500 122.323, 201.500 119 C 201.500 116.193, 201.079 115.440, 199.375 115.197 C 198.206 115.030, 196.518 115.625, 195.625 116.518 M 206 121.491 C 206 127.213, 205.699 128.198, 203.261 130.459 C 199.466 133.978, 194.855 134.685, 190.879 132.357 C 185.975 129.485, 183.500 125.500, 183.500 120.477 C 183.500 117.674, 183.154 116.446, 182.538 117.062 C 180.778 118.822, 181.808 126.112, 184.363 129.972 C 186.896 133.800, 192.172 137, 195.951 137 C 201.669 137, 210.009 129.106, 209.986 123.715 C 209.967 119.165, 209.031 116.226, 207.401 115.601 C 206.289 115.174, 206 116.389, 206 121.491 M 309.200 116.200 C 307.365 118.035, 307.736 121, 309.800 121 C 312.104 121, 314 119.104, 314 116.800 C 314 114.736, 311.035 114.365, 309.200 116.200 M 319.200 116.200 C 316.640 118.760, 318.185 124, 321.500 124 C 325.036 124, 326.236 119.379, 323.429 116.571 C 321.543 114.685, 320.781 114.619, 319.200 116.200 M 301.707 120 C 299.842 126.856, 301.557 130.484, 308.618 134.622 C 312.700 137.014, 313.514 137.162, 316.936 136.137 C 319.022 135.512, 321.928 134.058, 323.393 132.906 C 326.719 130.290, 330.010 123.973, 329.967 120.290 C 329.942 118.145, 329.497 118.768, 328.040 122.989 C 324.859 132.206, 317.929 135.958, 310.553 132.458 C 306.634 130.599, 304.451 127.286, 303.185 121.282 C 302.443 117.763, 302.340 117.674, 301.707 120 M 163.032 177 C 163.028 181.232, 165.754 191.027, 169.851 201.500 C 173.548 210.953, 173.932 211.517, 176.860 211.812 C 178.563 211.983, 180.638 211.742, 181.470 211.277 C 183.060 210.387, 182.842 209.984, 172.943 195.506 C 171.065 192.759, 168.067 186.909, 166.281 182.506 C 164.281 177.576, 163.033 175.460, 163.032 177 M 345.018 187.271 C 342.186 194.209, 340.491 196.677, 334.214 203 L 326.768 210.500 329.634 211.132 C 331.210 211.479, 334.393 211.817, 336.706 211.882 L 340.913 212 343.470 203.905 C 345.735 196.736, 349.249 179.916, 348.615 179.282 C 348.484 179.150, 346.865 182.746, 345.018 187.271 M 233.500 183.222 C 225.939 185.902, 222.104 191.645, 223.533 198.148 L 224.223 201.290 226.665 198.169 C 230.056 193.835, 234.943 192.592, 245.218 193.448 L 253.645 194.150 253.613 201.825 C 253.595 206.122, 254.126 210.486, 254.820 211.740 C 257.293 216.209, 264.663 218.299, 269.316 215.850 C 273.910 213.432, 274.120 211.034, 269.750 210.900 C 263.698 210.715, 261.623 209.605, 260.165 205.773 C 258.921 202.505, 258.970 201.727, 260.638 198.312 C 262.242 195.028, 263.022 194.457, 266.266 194.189 C 269.360 193.933, 270.577 194.423, 273.093 196.939 C 276.559 200.405, 277.527 200.675, 278.393 198.418 C 280.474 192.995, 276.753 186.048, 270.329 183.364 C 266.351 181.702, 238.094 181.593, 233.500 183.222 M 193.026 202.660 C 190.711 208.849, 190.921 211, 193.844 211 C 195.944 211, 197 207.613, 197 200.875 C 197 195.391, 195.492 196.068, 193.026 202.660 M 306.375 200.125 C 306.719 201.844, 307 204.769, 307 206.625 C 307 209.708, 307.259 210, 310 210 C 313.645 210, 313.709 209.066, 310.536 202.250 C 307.790 196.352, 305.374 195.118, 306.375 200.125 M 237 204.481 C 237 210.470, 236.832 210.613, 229.127 211.230 L 225.755 211.500 227.789 214 C 229.420 216.004, 230.728 216.500, 234.384 216.500 C 240.982 216.500, 243.500 213.720, 243.500 206.436 C 243.500 200.757, 242.406 199.047, 238.750 199.015 C 237.294 199.003, 237 199.922, 237 204.481 M 159 238.170 C 155.425 241.516, 154.300 242.888, 156.500 241.219 C 160.300 238.338, 166.868 231.951, 165.937 232.044 C 165.697 232.067, 162.575 234.824, 159 238.170 M 227.694 267.532 C 225.706 269.281, 223.718 270, 220.871 270 C 217.614 270, 216.916 270.325, 217.184 271.715 C 217.365 272.658, 219.086 274.429, 221.007 275.649 C 222.928 276.870, 225.332 278.618, 226.348 279.532 C 230.200 282.999, 232.128 283.174, 264.500 282.977 C 276.735 282.902, 282.113 281.498, 287.944 276.856 C 295.017 271.224, 294.728 269.500, 286.711 269.500 C 282.743 269.500, 278.918 268.819, 276.334 267.652 C 272.289 265.827, 272.167 265.832, 266.090 268.048 C 260.795 269.978, 258.656 270.213, 250.720 269.738 C 244.992 269.395, 239.417 268.394, 236 267.094 C 232.975 265.943, 230.500 265.015, 230.500 265.032 C 230.500 265.049, 229.237 266.174, 227.694 267.532 M 296.232 272 C 296.232 273.925, 296.438 274.712, 296.689 273.750 C 296.941 272.788, 296.941 271.212, 296.689 270.250 C 296.438 269.288, 296.232 270.075, 296.232 272 M 311.079 276.583 C 311.127 277.748, 311.364 277.985, 311.683 277.188 C 311.972 276.466, 311.936 275.603, 311.604 275.271 C 311.272 274.939, 311.036 275.529, 311.079 276.583 M 295.079 277.668 C 295.036 278.311, 294.741 279.661, 294.424 280.668 C 293.877 282.409, 293.906 282.412, 294.995 280.712 C 295.626 279.729, 295.920 278.379, 295.650 277.712 C 295.295 276.837, 295.136 276.825, 295.079 277.668 M 290.391 286.555 C 288.682 288.450, 287.591 290, 287.967 290 C 288.720 290, 292.290 286.228, 293.410 284.250 C 294.551 282.236, 293.708 282.880, 290.391 286.555 M 361.921 353.234 C 360.589 356.113, 357.455 361.176, 354.956 364.484 C 348.045 373.634, 346.329 376.273, 345.523 379 C 344.906 381.083, 345.647 380.666, 349.964 376.500 C 359.299 367.491, 363.518 360.554, 365.320 351.250 C 366.262 346.387, 364.654 347.326, 361.921 353.234" stroke="none" fill="white" fill-rule="evenodd"/>
</svg>